<svg xmlns="http://www.w3.org/2000/svg" viewBox="0 0 652 575" class="planart" role="img" aria-label="Second floor plan of the eight-room bed and breakfast"><style>svg.planart,svg.elevart{ background:#FFFFFF; }
.wall{ fill:#F6EFDC; stroke:#111111; stroke-width:2.4; }
.room-public{ fill:#DCE1E9; }
.room-service{ fill:#E7D9C2; }
.room-guest{ fill:#EADFC5; }
.room-circ{ fill:#FFFFFF; }
.room-bath{ fill:#D9E1E4; }
.room-attic{ fill:#EFE6D2; }
.room-nook{ fill:#E3D8B9; }
.wallline{ stroke:#111111; stroke-width:1.6; }
.kneewall{ fill:none; stroke:#444444; stroke-width:1.2; stroke-dasharray:5 4; }
.doorcut{ stroke:#F6EFDC; stroke-width:3; }
.doorarc{ fill:none; stroke:#444444; stroke-width:1; }
.archcut{ stroke:#DCE1E9; stroke-width:3; stroke-dasharray:1 3; }
.window{ stroke:#3B4A66; stroke-width:3; }
.stairbox{ fill:#F7F7F8; stroke:#111111; stroke-width:1.2; }
.stairstep{ stroke:#444444; stroke-width:1; }
.stairarrow{ fill:#444444; }
.compass{ fill:none; stroke:#444444; stroke-width:1; }
.compass-needle{ fill:#A8743A; }
.scalebar{ stroke:#111111; stroke-width:1.2; }
.dimline{ stroke:#767676; stroke-width:1; }
.dimtick{ stroke:#767676; stroke-width:1; }
.lbl,.lbl-room,.lbl-room-sm,.lbl-dim,.lbl-dim-sm,.lbl-tiny{ font-family:'Josefin Sans',Futura,sans-serif; fill:#111111; }
.lbl-room{ font-size:9.5px; letter-spacing:.04em; font-weight:600; }
.lbl-room-sm{ font-size:7.6px; letter-spacing:.03em; font-weight:600; }
.lbl-dim{ font-size:8px; fill:#444444; letter-spacing:.03em; }
.lbl-dim-sm{ font-size:6.6px; fill:#444444; letter-spacing:.02em; }
.lbl-tiny{ font-size:5.6px; fill:#767676; font-style:italic; }
.ground-line{ fill:#444444; }
.roof-main{ fill:#7C7161; stroke:#111111; stroke-width:2; }
.roof-upper{ fill:#8B806E; stroke:#111111; stroke-width:2; }
.roof-dormer{ fill:#8B806E; stroke:#111111; stroke-width:2; }
.roof-course{ stroke:#111111; stroke-width:.7; opacity:.35; }
.ridge-line{ stroke:#111111; stroke-width:1.4; }
.chimney{ fill:#D8CBAE; stroke:#111111; stroke-width:1.6; }
.chimney-cap{ fill:#6B5B45; stroke:#111111; stroke-width:1; }
.dormer-wall{ fill:#F6EFDC; stroke:#111111; stroke-width:2; }
.cornice{ fill:#6B5B45; stroke:#111111; stroke-width:1.4; }
.cordon{ fill:#A8743A; stroke:#111111; stroke-width:1.2; opacity:.85; }
.wall-upper{ fill:#F6EFDC; stroke:#111111; stroke-width:2.2; }
.win-frame{ fill:#D9E0E9; stroke:#111111; stroke-width:2; }
.win-bar{ stroke:#111111; stroke-width:1.3; }
.win-bar-thin{ stroke:#111111; stroke-width:.9; }
.rail{ stroke:#111111; stroke-width:1.6; fill:none; }
.rail-thin{ stroke:#444444; stroke-width:1; }
.pilaster{ fill:#F6EFDC; stroke:#111111; stroke-width:1.4; }
.pilaster-cap{ fill:#F6EFDC; stroke:#111111; stroke-width:1.2; }
.sconce-arm{ stroke:#444444; stroke-width:2; }
.sconce-lamp{ fill:#A8743A; stroke:#111111; stroke-width:1; }
.stone-line{ stroke:#444444; stroke-width:1; opacity:.55; }
.stone-line-faint{ stroke:#444444; stroke-width:.6; opacity:.3; }
.door{ fill:#6B5B45; stroke:#111111; stroke-width:2; opacity:.85; }
.door-bar{ stroke:#FFFFFF; stroke-width:1.4; }
.door-bar-thin{ stroke:#FFFFFF; stroke-width:1; opacity:.7; }
.cap{ font-family:'Josefin Sans',Futura,sans-serif; font-size:13px; fill:#444444; letter-spacing:.08em; }

.rock-a{ fill:#B9AFA0; stroke:#5C544A; stroke-width:.5; opacity:.95; }
.rock-b{ fill:#8E8A82; stroke:#4C4842; stroke-width:.5; opacity:.95; }
.rock-c{ fill:#6E7A80; stroke:#3E464A; stroke-width:.5; opacity:.95; }
.rock-outline{ fill:none; stroke:#111111; stroke-width:2; }

.planter-box{ fill:#5B4A38; stroke:#111111; stroke-width:1.4; }
.planter-rim{ fill:#6B5842; stroke:#111111; stroke-width:1; }
.planter-leaf{ fill:#5C6B44; stroke:#3C4630; stroke-width:.4; }

.awning-fascia{ fill:#26344A; stroke:#14202F; stroke-width:1.8; }
.awning-top{ fill:#33455F; stroke:#14202F; stroke-width:1.4; }
.awning-underside{ fill:#131C28; opacity:.55; }
.awning-stripe{ stroke:#3E5878; stroke-width:2; opacity:.7; }
.awning-bracket{ stroke:#8B806E; stroke-width:1.8; }
.awning-text{ font-family:'Cormorant Garamond',Georgia,serif; font-weight:600; letter-spacing:.13em; fill:#E4C583; }
.awning-rule{ stroke:#E4C583; stroke-width:1; opacity:.8; }</style>
<rect x="46.0" y="34.0" width="576.0" height="495.0" class="wall" />
<rect x="46.0" y="34.0" width="216.0" height="126.0" class="room-fill room-guest" />
<rect x="406.0" y="34.0" width="216.0" height="126.0" class="room-fill room-public" />
<rect x="208.0" y="115.0" width="54.0" height="45.0" class="room-fill room-bath" />
<rect x="262.0" y="34.0" width="144.0" height="162.0" class="room-fill room-public" />
<rect x="262.0" y="196.0" width="144.0" height="108.0" class="room-fill room-service" />
<rect x="262.0" y="304.0" width="72.0" height="90.0" class="room-fill room-service" />
<rect x="334.0" y="304.0" width="72.0" height="90.0" class="room-fill room-service" />
<rect x="262.0" y="394.0" width="144.0" height="135.0" class="room-fill room-circ" />
<rect x="46.0" y="160.0" width="144.0" height="135.0" class="room-fill room-guest" />
<rect x="46.0" y="295.0" width="144.0" height="135.0" class="room-fill room-guest" />
<rect x="478.0" y="160.0" width="144.0" height="135.0" class="room-fill room-guest" />
<rect x="478.0" y="295.0" width="144.0" height="135.0" class="room-fill room-guest" />
<rect x="190.0" y="160.0" width="72.0" height="369.0" class="room-fill room-circ" />
<rect x="406.0" y="160.0" width="72.0" height="369.0" class="room-fill room-circ" />
<rect x="136.0" y="160.0" width="54.0" height="45.0" class="room-fill room-bath" />
<rect x="136.0" y="295.0" width="54.0" height="45.0" class="room-fill room-bath" />
<rect x="478.0" y="160.0" width="54.0" height="45.0" class="room-fill room-bath" />
<rect x="478.0" y="295.0" width="54.0" height="45.0" class="room-fill room-bath" />
<line x1="262.0" y1="34.0" x2="262.0" y2="196.0" class="wallline"/>
<line x1="406.0" y1="34.0" x2="406.0" y2="196.0" class="wallline"/>
<line x1="262.0" y1="196.0" x2="406.0" y2="196.0" class="wallline"/>
<line x1="46.0" y1="160.0" x2="190.0" y2="160.0" class="wallline"/>
<line x1="478.0" y1="160.0" x2="622.0" y2="160.0" class="wallline"/>
<line x1="190.0" y1="160.0" x2="190.0" y2="529.0" class="wallline"/>
<line x1="406.0" y1="160.0" x2="406.0" y2="529.0" class="wallline"/>
<line x1="262.0" y1="160.0" x2="262.0" y2="529.0" class="wallline"/>
<line x1="406.0" y1="160.0" x2="406.0" y2="529.0" class="wallline"/>
<line x1="46.0" y1="295.0" x2="190.0" y2="295.0" class="wallline"/>
<line x1="478.0" y1="295.0" x2="622.0" y2="295.0" class="wallline"/>
<line x1="190.0" y1="430.0" x2="262.0" y2="430.0" class="wallline"/>
<line x1="406.0" y1="430.0" x2="478.0" y2="430.0" class="wallline"/>
<line x1="262.0" y1="304.0" x2="406.0" y2="304.0" class="wallline"/>
<line x1="334.0" y1="304.0" x2="334.0" y2="394.0" class="wallline"/>
<line x1="262.0" y1="394.0" x2="406.0" y2="394.0" class="wallline"/>
<line x1="136.0" y1="160.0" x2="136.0" y2="205.0" class="wallline"/>
<line x1="136.0" y1="205.0" x2="190.0" y2="205.0" class="wallline"/>
<line x1="136.0" y1="295.0" x2="136.0" y2="340.0" class="wallline"/>
<line x1="136.0" y1="340.0" x2="190.0" y2="340.0" class="wallline"/>
<line x1="532.0" y1="160.0" x2="532.0" y2="205.0" class="wallline"/>
<line x1="478.0" y1="205.0" x2="532.0" y2="205.0" class="wallline"/>
<line x1="532.0" y1="295.0" x2="532.0" y2="340.0" class="wallline"/>
<line x1="478.0" y1="340.0" x2="532.0" y2="340.0" class="wallline"/>
<line x1="208.0" y1="115.0" x2="208.0" y2="160.0" class="wallline"/>
<line x1="208.0" y1="115.0" x2="262.0" y2="115.0" class="wallline"/>
<rect x="289.0" y="97.0" width="90.0" height="99.0" class="stairbox" />
<text x="334.0" y="109.1" class="lbl-dim-sm" text-anchor="middle">DN TO FOYER</text>
<line x1="289.0" y1="126.2" x2="379.0" y2="126.2" class="stairstep"/>
<line x1="289.0" y1="137.4" x2="379.0" y2="137.4" class="stairstep"/>
<line x1="289.0" y1="148.6" x2="379.0" y2="148.6" class="stairstep"/>
<line x1="289.0" y1="159.7" x2="379.0" y2="159.7" class="stairstep"/>
<line x1="289.0" y1="170.9" x2="379.0" y2="170.9" class="stairstep"/>
<line x1="289.0" y1="182.1" x2="379.0" y2="182.1" class="stairstep"/>
<path d="M 334.0 179.2 l -3.1 -5.4 l 6.3 0 Z" class="stairarrow"/>
<rect x="334.0" y="304.0" width="72.0" height="90.0" class="stairbox" />
<text x="370.0" y="316.2" class="lbl-dim-sm" text-anchor="middle">UP TO ATTIC</text>
<line x1="337.6" y1="331.6" x2="402.4" y2="331.6" class="stairstep"/>
<line x1="337.6" y1="341.3" x2="402.4" y2="341.3" class="stairstep"/>
<line x1="337.6" y1="350.9" x2="402.4" y2="350.9" class="stairstep"/>
<line x1="337.6" y1="360.6" x2="402.4" y2="360.6" class="stairstep"/>
<line x1="337.6" y1="370.2" x2="402.4" y2="370.2" class="stairstep"/>
<line x1="337.6" y1="379.9" x2="402.4" y2="379.9" class="stairstep"/>
<path d="M 370.0 377.3 l -3.1 -5.4 l 6.3 0 Z" class="stairarrow"/>
<rect x="190.0" y="430.0" width="72.0" height="99.0" class="stairbox" />
<text x="226.0" y="442.1" class="lbl-dim-sm" text-anchor="middle">DN</text>
<line x1="193.6" y1="459.2" x2="258.4" y2="459.2" class="stairstep"/>
<line x1="193.6" y1="470.4" x2="258.4" y2="470.4" class="stairstep"/>
<line x1="193.6" y1="481.6" x2="258.4" y2="481.6" class="stairstep"/>
<line x1="193.6" y1="492.7" x2="258.4" y2="492.7" class="stairstep"/>
<line x1="193.6" y1="503.9" x2="258.4" y2="503.9" class="stairstep"/>
<line x1="193.6" y1="515.1" x2="258.4" y2="515.1" class="stairstep"/>
<path d="M 226.0 512.2 l -3.1 -5.4 l 6.3 0 Z" class="stairarrow"/>
<text x="226.0" y="423.7" class="lbl-tiny" text-anchor="middle">1-HR RATED ENCLOSURE</text>
<rect x="406.0" y="430.0" width="72.0" height="99.0" class="stairbox" />
<text x="442.0" y="442.1" class="lbl-dim-sm" text-anchor="middle">DN</text>
<line x1="409.6" y1="459.2" x2="474.4" y2="459.2" class="stairstep"/>
<line x1="409.6" y1="470.4" x2="474.4" y2="470.4" class="stairstep"/>
<line x1="409.6" y1="481.6" x2="474.4" y2="481.6" class="stairstep"/>
<line x1="409.6" y1="492.7" x2="474.4" y2="492.7" class="stairstep"/>
<line x1="409.6" y1="503.9" x2="474.4" y2="503.9" class="stairstep"/>
<line x1="409.6" y1="515.1" x2="474.4" y2="515.1" class="stairstep"/>
<path d="M 442.0 512.2 l -3.1 -5.4 l 6.3 0 Z" class="stairarrow"/>
<text x="442.0" y="423.7" class="lbl-tiny" text-anchor="middle">1-HR RATED ENCLOSURE</text>
<line x1="316.0" y1="196.0" x2="352.0" y2="196.0" class="doorcut"/>
<path d="M 316.0 196.0 L 343.0 196.0 A 27.0 27.0 0 0 1 316.0 223.0 Z" class="doorarc"/>
<line x1="190.0" y1="187.0" x2="190.0" y2="214.0" class="doorcut"/>
<path d="M 190.0 214.0 L 217.0 214.0 A 27.0 27.0 0 0 1 190.0 241.0 Z" class="doorarc"/>
<line x1="478.0" y1="187.0" x2="478.0" y2="214.0" class="doorcut"/>
<path d="M 478.0 187.0 L 478.0 214.0 A 27.0 27.0 0 0 1 451.0 187.0 Z" class="doorarc"/>
<line x1="190.0" y1="214.0" x2="190.0" y2="241.0" class="doorcut"/>
<path d="M 190.0 241.0 L 217.0 241.0 A 27.0 27.0 0 0 1 190.0 268.0 Z" class="doorarc"/>
<line x1="190.0" y1="349.0" x2="190.0" y2="376.0" class="doorcut"/>
<path d="M 190.0 376.0 L 217.0 376.0 A 27.0 27.0 0 0 1 190.0 403.0 Z" class="doorarc"/>
<line x1="478.0" y1="214.0" x2="478.0" y2="241.0" class="doorcut"/>
<path d="M 478.0 214.0 L 478.0 241.0 A 27.0 27.0 0 0 1 451.0 214.0 Z" class="doorarc"/>
<line x1="478.0" y1="349.0" x2="478.0" y2="376.0" class="doorcut"/>
<path d="M 478.0 349.0 L 478.0 376.0 A 27.0 27.0 0 0 1 451.0 349.0 Z" class="doorarc"/>
<line x1="136.0" y1="173.5" x2="136.0" y2="191.5" class="doorcut"/>
<path d="M 136.0 191.5 L 163.0 191.5 A 27.0 27.0 0 0 1 136.0 218.5 Z" class="doorarc"/>
<line x1="136.0" y1="308.5" x2="136.0" y2="326.5" class="doorcut"/>
<path d="M 136.0 326.5 L 163.0 326.5 A 27.0 27.0 0 0 1 136.0 353.5 Z" class="doorarc"/>
<line x1="532.0" y1="173.5" x2="532.0" y2="191.5" class="doorcut"/>
<path d="M 532.0 173.5 L 532.0 200.5 A 27.0 27.0 0 0 1 505.0 173.5 Z" class="doorarc"/>
<line x1="532.0" y1="308.5" x2="532.0" y2="326.5" class="doorcut"/>
<path d="M 532.0 308.5 L 532.0 335.5 A 27.0 27.0 0 0 1 505.0 308.5 Z" class="doorarc"/>
<line x1="217.0" y1="430.0" x2="253.0" y2="430.0" class="doorcut"/>
<path d="M 217.0 430.0 L 244.0 430.0 A 27.0 27.0 0 0 1 217.0 457.0 Z" class="doorarc"/>
<line x1="415.0" y1="430.0" x2="451.0" y2="430.0" class="doorcut"/>
<path d="M 415.0 430.0 L 415.0 457.0 A 27.0 27.0 0 0 1 388.0 430.0 Z" class="doorarc"/>
<line x1="262.0" y1="61.0" x2="262.0" y2="88.0" class="doorcut"/>
<path d="M 262.0 88.0 L 262.0 115.0 A 27.0 27.0 0 0 1 235.0 88.0 Z" class="doorarc"/>
<line x1="406.0" y1="61.0" x2="406.0" y2="88.0" class="doorcut"/>
<path d="M 406.0 61.0 L 433.0 61.0 A 27.0 27.0 0 0 1 406.0 88.0 Z" class="doorarc"/>
<line x1="208.0" y1="133.0" x2="208.0" y2="151.0" class="doorcut"/>
<path d="M 208.0 151.0 L 235.0 151.0 A 27.0 27.0 0 0 1 208.0 178.0 Z" class="doorarc"/>
<line x1="105.4" y1="34.0" x2="130.6" y2="34.0" class="window"/>
<line x1="141.4" y1="34.0" x2="166.6" y2="34.0" class="window"/>
<line x1="213.4" y1="34.0" x2="238.6" y2="34.0" class="window"/>
<line x1="429.4" y1="34.0" x2="454.6" y2="34.0" class="window"/>
<line x1="501.4" y1="34.0" x2="526.6" y2="34.0" class="window"/>
<line x1="537.4" y1="34.0" x2="562.6" y2="34.0" class="window"/>
<line x1="308.8" y1="34.0" x2="359.2" y2="34.0" class="window"/>
<line x1="46.0" y1="185.4" x2="46.0" y2="220.1" class="window"/>
<line x1="46.0" y1="234.9" x2="46.0" y2="269.6" class="window"/>
<line x1="46.0" y1="320.4" x2="46.0" y2="355.1" class="window"/>
<line x1="46.0" y1="369.9" x2="46.0" y2="404.6" class="window"/>
<line x1="622.0" y1="185.4" x2="622.0" y2="220.1" class="window"/>
<line x1="622.0" y1="234.9" x2="622.0" y2="269.6" class="window"/>
<line x1="622.0" y1="320.4" x2="622.0" y2="355.1" class="window"/>
<line x1="622.0" y1="369.9" x2="622.0" y2="404.6" class="window"/>
<text x="118.0" y="218.0" class="lbl-room" text-anchor="middle">ROOM 201</text>
<text x="118.0" y="229.8" class="lbl-dim-sm" text-anchor="middle">210 sf</text>
<text x="550.0" y="218.0" class="lbl-room" text-anchor="middle">ROOM 203</text>
<text x="550.0" y="229.8" class="lbl-dim-sm" text-anchor="middle">210 sf</text>
<text x="145.0" y="83.1" class="lbl-room" text-anchor="middle">OWNER'S SUITE</text>
<text x="145.0" y="94.8" class="lbl-dim-sm" text-anchor="middle">24′ × 14′ · 336 sf</text>
<text x="514.0" y="83.1" class="lbl-room" text-anchor="middle">GUEST LOUNGE</text>
<text x="514.0" y="94.8" class="lbl-dim-sm" text-anchor="middle">24′ × 14′ · 336 sf</text>
<text x="235.0" y="142.0" class="lbl-tiny" text-anchor="middle">BATH</text>
<text x="334.0" y="65.0" class="lbl-room" text-anchor="middle">STAIR LANDING</text>
<text x="334.0" y="76.8" class="lbl-dim-sm" text-anchor="middle">open to foyer below</text>
<text x="118.0" y="353.1" class="lbl-room" text-anchor="middle">ROOM 202</text>
<text x="118.0" y="364.8" class="lbl-dim-sm" text-anchor="middle">210 sf</text>
<text x="550.0" y="353.1" class="lbl-room" text-anchor="middle">ROOM 204</text>
<text x="550.0" y="364.8" class="lbl-dim-sm" text-anchor="middle">210 sf</text>
<text x="334.0" y="245.0" class="lbl-room" text-anchor="middle">LAUNDRY</text>
<text x="334.0" y="256.8" class="lbl-dim-sm" text-anchor="middle">16′ × 12′ · 192 sf</text>
<text x="298.0" y="344.1" class="lbl-room-sm" text-anchor="middle">STORAGE</text>
<text x="298.0" y="355.8" class="lbl-dim-sm" text-anchor="middle">8′ × 10′</text>
<text x="370.0" y="297.7" class="lbl-room-sm" text-anchor="middle">ATTIC STAIR</text>
<text x="334.0" y="456.6" class="lbl-room-sm" text-anchor="middle">MECHANICAL / LINEN HALL</text>
<text x="334.0" y="468.2" class="lbl-dim-sm" text-anchor="middle">links both wings</text>
<text x="226.0" y="295.0" class="lbl-dim-sm" text-anchor="middle">CORRIDOR</text>
<text x="442.0" y="295.0" class="lbl-dim-sm" text-anchor="middle">CORRIDOR</text>
<text x="163.0" y="184.3" class="lbl-tiny" text-anchor="middle">BATH</text>
<text x="163.0" y="319.3" class="lbl-tiny" text-anchor="middle">BATH</text>
<text x="505.0" y="184.3" class="lbl-tiny" text-anchor="middle">BATH</text>
<text x="505.0" y="319.3" class="lbl-tiny" text-anchor="middle">BATH</text>
<line x1="46.0" y1="-11.0" x2="622.0" y2="-11.0" class="dimline"/>
<line x1="46.0" y1="34.0" x2="46.0" y2="-11.0" class="dimtick"/>
<line x1="622.0" y1="34.0" x2="622.0" y2="-11.0" class="dimtick"/>
<text x="334.0" y="-15.5" class="lbl-dim" text-anchor="middle">64′-0″</text>
<line x1="-17.0" y1="34.0" x2="-17.0" y2="529.0" class="dimline"/>
<line x1="46.0" y1="34.0" x2="-17.0" y2="34.0" class="dimtick"/>
<line x1="46.0" y1="529.0" x2="-17.0" y2="529.0" class="dimtick"/>
<text x="-21.5" y="281.5" class="lbl-dim" text-anchor="middle" transform="rotate(-90 -21.5 281.5)">55′-0″</text>

<g transform="translate(766.0,70.0)">
  <circle r="15" class="compass"/>
  <path d="M 0 -11 L 5 6 L 0 2 L -5 6 Z" class="compass-needle"/>
  <text y="-18" class="lbl-dim-sm" text-anchor="middle">N</text>
</g>
<line x1="64.0" y1="610.0" x2="154.0" y2="610.0" class="scalebar"/>
<line x1="64.0" y1="606.9" x2="64.0" y2="613.1" class="scalebar"/>
<line x1="73.0" y1="608.4" x2="73.0" y2="611.6" class="scalebar"/>
<line x1="82.0" y1="608.4" x2="82.0" y2="611.6" class="scalebar"/>
<line x1="91.0" y1="608.4" x2="91.0" y2="611.6" class="scalebar"/>
<line x1="100.0" y1="608.4" x2="100.0" y2="611.6" class="scalebar"/>
<line x1="109.0" y1="606.9" x2="109.0" y2="613.1" class="scalebar"/>
<line x1="118.0" y1="608.4" x2="118.0" y2="611.6" class="scalebar"/>
<line x1="127.0" y1="608.4" x2="127.0" y2="611.6" class="scalebar"/>
<line x1="136.0" y1="608.4" x2="136.0" y2="611.6" class="scalebar"/>
<line x1="145.0" y1="608.4" x2="145.0" y2="611.6" class="scalebar"/>
<line x1="154.0" y1="606.9" x2="154.0" y2="613.1" class="scalebar"/>
<text x="109.0" y="624.4" class="lbl-dim-sm" text-anchor="middle">0        5        10 ft</text>
</svg>